<svg id="Layer_3" height="512" viewBox="0 0 64 64" width="512" xmlns="http://www.w3.org/2000/svg" data-name="Layer 3"><path d="m7 36h2v19h-2z" fill="#fcb732"/><path d="m10 55a6.237 6.237 0 0 1 -2 4 6.237 6.237 0 0 1 -2-4 6.237 6.237 0 0 1 2-4 6.237 6.237 0 0 1 2 4z" fill="#ec8329"/><circle cx="8" cy="45" fill="#ec8329" r="2"/><path d="m50 38v14l-1.133.629a34.722 34.722 0 0 1 -16.867 4.371 34.722 34.722 0 0 1 -16.867-4.371l-1.133-.629v-14z" fill="#707070"/><path d="m34.43 56.909a34.725 34.725 0 0 0 14.437-4.28l1.133-.629v-14h-24.969a26.176 26.176 0 0 0 9.399 18.909z" fill="#898989"/><path d="m2 36 30 12 30-12-30-12z" fill="#4f4f4f"/><path d="m62 36-23.624-9.45c-9.558 1.265-16.376 4.571-16.376 8.45 0 4.4 8.785 8.065 20.389 8.845z" fill="#5b5b5b"/><path d="m2 8h4v14h-4z" fill="#f9cb5d"/><path d="m39.151 9a46.414 46.414 0 0 0 18.849-4v20a46.414 46.414 0 0 0 -18.849-4h-14.3a46.414 46.414 0 0 0 -18.851 4v-20a46.414 46.414 0 0 0 18.849 4z" fill="#ffd98c"/><path d="m24.849 9a46.414 46.414 0 0 1 -18.849-4v13a46.414 46.414 0 0 1 18.849-4h14.3a46.414 46.414 0 0 1 18.851 4v-13a46.414 46.414 0 0 1 -18.849 4z" fill="#ffe1ae"/><path d="m58 8h4v14h-4z" fill="#f9cb5d"/><path d="m29 9h6v12h-6z" fill="#fcb732"/><path d="m35 19 2 11-5-3-5 3 2-11z" fill="#e73844"/><circle cx="32" cy="17" fill="#bc1e2e" r="4"/><path d="m62 7h-3v-2a1 1 0 0 0 -1.406-.914 45.133 45.133 0 0 1 -18.443 3.914h-14.3a45.133 45.133 0 0 1 -18.445-3.914 1 1 0 0 0 -1.406.914v2h-3a1 1 0 0 0 -1 1v14a1 1 0 0 0 1 1h3v2a1 1 0 0 0 1.406.914 45.133 45.133 0 0 1 18.443-3.914h2.589l-.538 2.963-25.272 10.108a1 1 0 0 0 0 1.858l5.372 2.148v3.107a2.982 2.982 0 0 0 0 5.632v2.773a6.854 6.854 0 0 0 -2 4.411 7.224 7.224 0 0 0 2.333 4.745 1 1 0 0 0 1.334 0 7.224 7.224 0 0 0 2.333-4.745 6.854 6.854 0 0 0 -2-4.411v-2.773a2.982 2.982 0 0 0 0-5.632v-2.307l4 1.6v10.523a1 1 0 0 0 .514.874l1.133.629a35.729 35.729 0 0 0 34.706 0l1.133-.629a1 1 0 0 0 .514-.874v-10.523l11.372-4.548a1 1 0 0 0 0-1.858l-25.272-10.108-.538-2.963h2.589a45.133 45.133 0 0 1 18.443 3.914 1 1 0 0 0 1.406-.914v-2h3a1 1 0 0 0 1-1v-14a1 1 0 0 0 -1-1zm-59 14v-12h2v12zm5 36.5a4.354 4.354 0 0 1 -1-2.5 4.354 4.354 0 0 1 1-2.5 4.354 4.354 0 0 1 1 2.5 4.354 4.354 0 0 1 -1 2.5zm0-11.5a1 1 0 1 1 1-1 1 1 0 0 1 -1 1zm27-29a3 3 0 1 1 -3-3 3 3 0 0 1 3 3zm-3 5a4.942 4.942 0 0 0 2.411-.647l1.21 6.653-3.106-1.863a1 1 0 0 0 -1.03 0l-3.106 1.863 1.21-6.653a4.942 4.942 0 0 0 2.411.647zm2-9.576a4.929 4.929 0 0 0 -4 0v-2.424h4zm-9.151 7.576a47.087 47.087 0 0 0 -17.849 3.488v-16.976a47.087 47.087 0 0 0 17.849 3.488h3.151v4.031a4.941 4.941 0 0 0 -.157 5.741l-.043.228zm24.151 31.412-.619.343a33.729 33.729 0 0 1 -32.762 0l-.619-.343v-9.135l16.628 6.652a1.01 1.01 0 0 0 .744 0l16.628-6.652zm10.308-15.412-27.308 10.923-27.308-10.923 21.785-8.714-.461 2.535a1 1 0 0 0 1.5 1.036l4.484-2.691 4.485 2.691a1 1 0 0 0 1.5-1.036l-.461-2.535zm-2.308-12.512a47.087 47.087 0 0 0 -17.849-3.488h-2.951l-.041-.228a4.941 4.941 0 0 0 -.159-5.741v-4.031h3.151a47.087 47.087 0 0 0 17.849-3.488zm4-2.488h-2v-12h2z"/></svg>